<?xml version="1.0" encoding="UTF-8"?>
<svg version="1.1" xmlns="http://www.w3.org/2000/svg" width="1024" height="1024">
<path d="M0 0 C8.38998092 6.29625139 16.20954813 14.44114063 17.74609375 25.1484375 C18.30674769 37.0071178 12.67760932 47.61076745 7.25 57.8125 C6.67813965 58.89934082 6.1062793 59.98618164 5.51708984 61.10595703 C1.16686673 69.28369734 -3.4893112 77.19482338 -8.56542969 84.93994141 C-10.11658069 87.31527541 -11.61672562 89.72228384 -13.125 92.125 C-23.49717299 108.34814236 -34.35631037 124.27122587 -46.203125 139.45703125 C-47.83423081 141.54852983 -49.44996171 143.64471575 -51.046875 145.76171875 C-55.90401687 152.18552412 -60.95490952 158.38366089 -66.23168945 164.46801758 C-69.28570559 167.98954028 -72.26485301 171.55506731 -75.1875 175.1875 C-78.97273729 179.86174715 -82.97052733 184.29599031 -87.08422852 188.68017578 C-89.65628356 191.40197648 -89.65628356 191.40197648 -91.625 194.5625 C-92.285 194.5625 -92.945 194.5625 -93.625 194.5625 C-93.88095947 195.14064453 -94.13691895 195.71878906 -94.40063477 196.31445312 C-95.7462522 198.78513017 -97.26572892 200.50591554 -99.21484375 202.53125 C-99.91673828 203.26730469 -100.61863281 204.00335938 -101.34179688 204.76171875 C-102.07462891 205.52097656 -102.80746094 206.28023437 -103.5625 207.0625 C-105.01095731 208.57114962 -106.45763678 210.08150861 -107.90234375 211.59375 C-108.54421631 212.25955078 -109.18608887 212.92535156 -109.84741211 213.61132812 C-111.67931495 215.54517618 -111.67931495 215.54517618 -113.23266602 217.81054688 C-113.69213623 218.38869141 -114.15160645 218.96683594 -114.625 219.5625 C-115.285 219.5625 -115.945 219.5625 -116.625 219.5625 C-116.86863281 220.13484375 -117.11226562 220.7071875 -117.36328125 221.296875 C-118.85017298 223.96683538 -120.60583908 225.70079007 -122.8125 227.8125 C-126.26645559 231.18421855 -129.46836861 234.63716762 -132.58203125 238.3203125 C-134.25557075 240.1570461 -135.95593173 241.85304968 -137.76171875 243.5546875 C-138.31496826 244.08215576 -138.86821777 244.60962402 -139.43823242 245.15307617 C-140.54712891 246.20290855 -141.66819837 247.24005682 -142.80200195 248.26293945 C-144.56021652 249.87207163 -144.56021652 249.87207163 -146.625 252.5625 C-146.69187323 256.77551367 -144.40063848 260.30979932 -142.5 264 C-141.77813331 265.41640558 -141.05683067 266.83309869 -140.3359375 268.25 C-139.91795898 269.06726563 -139.49998047 269.88453125 -139.06933594 270.7265625 C-136.05934835 276.63663954 -133.09390629 282.56921129 -130.125 288.5 C-129.79553375 289.15759308 -129.4660675 289.81518616 -129.12661743 290.4927063 C-125.07901634 298.57561254 -121.08834645 306.67802711 -117.28710938 314.88037109 C-113.89487616 322.18802717 -110.26250422 329.37455949 -106.625 336.5625 C-105.965 336.5625 -105.305 336.5625 -104.625 336.5625 C-104.52227783 337.41465088 -104.41955566 338.26680176 -104.3137207 339.14477539 C-103.55769306 342.89650562 -102.28278198 345.80904821 -100.60546875 349.24609375 C-100.30562576 349.86468765 -100.00578278 350.48328156 -99.69685364 351.12062073 C-99.06411884 352.42242161 -98.42771575 353.72244529 -97.7878418 355.02075195 C-96.81876016 356.98729635 -95.86056169 358.95883704 -94.90429688 360.93164062 C-91.37877022 368.18543837 -91.37877022 368.18543837 -87.47387695 375.23852539 C-85.97611787 377.93124822 -85.25169749 379.65401958 -84.625 382.5625 C-83.83659559 384.27922086 -83.00293852 385.97543847 -82.140625 387.65625 C-81.62346924 388.67364258 -81.10631348 389.69103516 -80.57348633 390.73925781 C-80.01298584 391.83592773 -79.45248535 392.93259766 -78.875 394.0625 C-73.89839859 403.9053445 -69.08460302 413.8097849 -64.4375 423.8125 C-63.88545898 424.99521484 -63.33341797 426.17792969 -62.76464844 427.39648438 C-61.99362793 429.06420898 -61.99362793 429.06420898 -61.20703125 430.765625 C-60.75561768 431.74176758 -60.3042041 432.71791016 -59.83911133 433.72363281 C-58.625 436.5625 -58.625 436.5625 -57.65112305 439.86230469 C-57.31250244 440.75336914 -56.97388184 441.64443359 -56.625 442.5625 C-55.635 442.8925 -54.645 443.2225 -53.625 443.5625 C-53.625 444.8825 -53.625 446.2025 -53.625 447.5625 C-52.56014536 450.30397889 -52.56014536 450.30397889 -51.0625 453.2265625 C-50.51682373 454.33990967 -49.97114746 455.45325684 -49.40893555 456.6003418 C-48.97210953 457.47860123 -48.97210953 457.47860123 -48.52645874 458.37460327 C-47.00812064 461.42808763 -45.51457374 464.49365376 -44.01953125 467.55859375 C-43.7229512 468.16518326 -43.42637115 468.77177277 -43.12080383 469.39674377 C-40.7323295 474.29835514 -38.48395765 479.24923762 -36.3125 484.25 C-33.57562547 490.53695095 -30.61897587 496.67042019 -27.49633789 502.77441406 C-24.64718805 508.38901953 -22.20734859 514.12802179 -19.8515625 519.96484375 C-18.89410907 522.6853823 -18.89410907 522.6853823 -16.625 523.5625 C-16.24520847 525.88872311 -15.92192012 528.22425408 -15.625 530.5625 C-15.26244492 531.85771488 -14.88719359 533.14943599 -14.5 534.4375 C-12.81865427 541.16288292 -13.74161224 546.50021177 -17.1875 552.5 C-20.63978512 557.81816304 -24.52733486 562.73070107 -28.625 567.5625 C-29.36105469 568.44550781 -30.09710937 569.32851563 -30.85546875 570.23828125 C-36.34023161 576.61042399 -41.48910093 582.12121801 -50.0625 583.5625 C-56.60111105 583.87545916 -61.26540139 582.54593072 -66.3203125 578.296875 C-71.75307931 573.00030568 -76.58494048 567.31368186 -81.3125 561.37890625 C-83.81368749 558.33269649 -86.4390022 555.44469484 -89.125 552.5625 C-93.41493731 547.95283885 -97.42913612 543.18463392 -101.37890625 538.27734375 C-103.7133059 535.45576505 -106.14490598 532.75659288 -108.625 530.0625 C-112.73878909 525.5926488 -116.59587297 520.97205107 -120.41015625 516.24609375 C-123.29098507 512.75556571 -126.33434403 509.42975932 -129.3828125 506.0859375 C-131.67015904 503.51167642 -133.84048271 500.86960511 -136 498.1875 C-139.30874829 494.09647322 -142.74230416 490.17341265 -146.3125 486.3125 C-147.01185669 485.55598145 -147.01185669 485.55598145 -147.7253418 484.78417969 C-148.1769165 484.29594727 -148.62849121 483.80771484 -149.09375 483.3046875 C-157.625 474.0625 -157.625 474.0625 -157.625 471.5625 C-158.285 471.5625 -158.945 471.5625 -159.625 471.5625 C-160.87314331 470.15571977 -162.0480839 468.68370296 -163.1875 467.1875 C-167.43006462 461.74594973 -171.98258271 456.66238177 -176.625 451.5625 C-181.41973836 446.1739179 -186.09768715 440.6841248 -190.78686523 435.20385742 C-195.19845363 430.05118245 -199.63669635 424.92199047 -204.08447266 419.80053711 C-204.59026855 419.21796143 -205.09606445 418.63538574 -205.6171875 418.03515625 C-206.11186523 417.46555176 -206.60654297 416.89594727 -207.11621094 416.30908203 C-209.17031753 413.93123761 -211.20406631 411.5361982 -213.23486328 409.13842773 C-214.63962918 407.54591564 -216.12259067 406.06236158 -217.625 404.5625 C-218.95003338 402.94770348 -220.26086188 401.32121339 -221.5625 399.6875 C-225.1028527 395.32394334 -228.78350704 391.16196272 -232.625 387.0625 C-237.13252392 382.24850143 -241.37977067 377.2965058 -245.51171875 372.15234375 C-248.75628431 368.17610166 -252.17952099 364.3647316 -255.625 360.5625 C-259.66305866 361.92516644 -262.16868118 363.7034151 -265.25 366.625 C-270.00623969 371.02504553 -274.92737552 375.13920393 -279.96289062 379.21386719 C-289.35183496 386.83204117 -298.65650109 394.54258724 -307.80786133 402.44458008 C-311.78984706 405.87375217 -315.86008712 409.16868635 -319.984375 412.42578125 C-324.51737473 416.09375589 -328.91444521 419.92049919 -333.328125 423.73046875 C-333.87533203 424.2001709 -334.42253906 424.66987305 -334.98632812 425.15380859 C-336.09871467 426.11007653 -337.20665685 427.07153399 -338.31054688 428.03759766 C-342.40206208 431.5625 -342.40206208 431.5625 -344.625 431.5625 C-344.955 432.5525 -345.285 433.5425 -345.625 434.5625 C-347.015625 435.78125 -347.015625 435.78125 -348.875 437.0625 C-352.73941119 439.84653817 -356.38344376 442.84242528 -360 445.9375 C-364.75361208 449.99631639 -369.56779177 453.95795916 -374.46484375 457.84375 C-379.71219252 462.01282512 -379.71219252 462.01282512 -384.625 466.5625 C-385.7401976 467.40890638 -386.86692303 468.24018253 -388 469.0625 C-393.73962671 473.3195663 -399.16441418 477.95740596 -404.625 482.5625 C-403.94804363 486.81449065 -402.51965021 490.60785607 -400.87890625 494.5625 C-400.45462593 495.60111176 -400.45462593 495.60111176 -400.02177429 496.66070557 C-399.40501919 498.16946769 -398.78631383 499.67743372 -398.16589355 501.18469238 C-396.47197604 505.30145087 -394.79397369 509.42470403 -393.11328125 513.546875 C-392.576996 514.86048004 -392.576996 514.86048004 -392.02987671 516.20062256 C-388.00670344 526.06140861 -384.03210351 535.94157413 -380.07150269 545.82763672 C-379.27861314 547.80562383 -378.48462008 549.78316896 -377.68948364 551.76025391 C-376.56647459 554.55269336 -375.44687847 557.34647835 -374.328125 560.140625 C-373.99745529 560.96113342 -373.66678558 561.78164185 -373.32609558 562.62701416 C-365.10456685 583.22014649 -365.10456685 583.22014649 -368.48828125 592.23828125 C-373.04085711 601.54681265 -382.76884439 612.74608451 -392.625 616.5625 C-397.90328705 617.50532726 -402.84608311 617.41740142 -407.625 614.8125 C-416.17204293 608.62507015 -422.88851724 599.35443055 -429.4453125 591.2109375 C-431.60257399 588.58974881 -433.83811 586.07095719 -436.125 583.5625 C-439.22055196 580.16651318 -442.17651207 576.70078469 -445.0625 573.125 C-448.92441675 568.34965598 -453.00174224 563.82582315 -457.16015625 559.30859375 C-459.55207297 556.64374834 -461.81754884 553.91418175 -464.0625 551.125 C-468.98451554 545.02099507 -474.27654204 539.29084843 -479.625 533.5625 C-480.49898438 534.28953125 -481.37296875 535.0165625 -482.2734375 535.765625 C-489.40963787 541.62694219 -496.68569443 547.13004394 -504.375 552.25 C-505.53588135 553.0248877 -505.53588135 553.0248877 -506.72021484 553.81542969 C-513.31701161 558.14892093 -518.64089276 559.61034289 -526.625 558.5625 C-529.80239189 556.91541871 -532.00281742 554.80686516 -533.625 551.5625 C-534.72774832 542.87835698 -531.68807069 538.42897213 -526.625 531.5625 C-526.15352539 530.9226416 -525.68205078 530.2827832 -525.19628906 529.62353516 C-522.65297417 526.1830088 -520.08560329 522.76227412 -517.4921875 519.359375 C-514.79416031 515.81193506 -512.19846974 512.20117882 -509.625 508.5625 C-511.11975119 504.84626775 -513.16380479 503.10667689 -516.3125 500.6875 C-521.19379987 496.80815115 -525.77781394 492.71589002 -530.3125 488.4375 C-539.0394581 479.97716873 -539.0394581 479.97716873 -548.625 472.5625 C-548.625 471.9025 -548.625 471.2425 -548.625 470.5625 C-549.21144287 470.29373047 -549.79788574 470.02496094 -550.40209961 469.74804688 C-552.63642422 468.55640708 -554.30056622 467.26943351 -556.19140625 465.59375 C-557.1669043 464.73716797 -557.1669043 464.73716797 -558.16210938 463.86328125 C-558.83048828 463.26902344 -559.49886719 462.67476562 -560.1875 462.0625 C-561.52078705 460.88388959 -562.85537324 459.70674677 -564.19140625 458.53125 C-564.77865479 458.00982422 -565.36590332 457.48839844 -565.97094727 456.95117188 C-567.78573534 455.3757734 -567.78573534 455.3757734 -570.625 453.5625 C-570.625 452.9025 -570.625 452.2425 -570.625 451.5625 C-571.50466431 451.16285034 -571.50466431 451.16285034 -572.40209961 450.75512695 C-576.18849431 448.72365654 -579.07393536 445.6774113 -582.1875 442.75 C-583.19586914 441.82477539 -583.19586914 441.82477539 -584.22460938 440.88085938 C-591.9663206 433.64654928 -591.9663206 433.64654928 -593.12890625 428.203125 C-593.30391696 421.06268822 -591.32983406 416.87121123 -586.625 411.5625 C-572.27917717 396.97973415 -572.27917717 396.97973415 -561.58642578 396.43676758 C-550.16367363 396.92174016 -538.3658222 402.79856872 -527.8125 406.9375 C-524.95318737 408.05301221 -522.09241085 409.16468938 -519.23046875 410.2734375 C-518.1697113 410.68473404 -518.1697113 410.68473404 -517.08752441 411.1043396 C-511.32163643 413.32570362 -505.51018658 415.40005306 -499.67713928 417.43743896 C-493.49960868 419.5960132 -487.36931058 421.86895201 -481.25 424.1875 C-478.33259754 425.28971546 -475.41478439 426.39045419 -472.49316406 427.48144531 C-470.52021202 428.22508097 -468.55366351 428.98585906 -466.59277344 429.76074219 C-465.13532715 430.32390137 -465.13532715 430.32390137 -463.6484375 430.8984375 C-462.77880371 431.24181152 -461.90916992 431.58518555 -461.01318359 431.93896484 C-458.36660368 432.62996516 -457.13163355 432.61439979 -454.625 431.5625 C-452.79536818 429.53715392 -451.18079451 427.55809963 -449.5625 425.375 C-448.57963843 424.08707827 -447.59655964 422.79932228 -446.61328125 421.51171875 C-446.11521973 420.85220215 -445.6171582 420.19268555 -445.10400391 419.51318359 C-442.85320766 416.54456986 -440.55387347 413.61499731 -438.25 410.6875 C-437.80052002 410.11475342 -437.35104004 409.54200684 -436.88793945 408.9519043 C-430.67989125 401.05998445 -424.30819226 393.29982229 -417.95898438 385.52148438 C-411.26125469 377.31263354 -404.62655932 369.06256394 -398.09765625 360.71875 C-391.96647038 352.88354792 -385.6880152 345.16769334 -379.40722656 337.45239258 C-376.41655369 333.77661059 -373.44402621 330.08834993 -370.5 326.375 C-367.06222581 322.05796281 -363.48976496 317.86171439 -359.90625 313.66601562 C-356.01361514 309.08171424 -352.30621057 304.36873798 -348.63647461 299.60498047 C-345.05956938 295.00212109 -341.21279605 290.79430773 -337.109375 286.6484375 C-335.38632457 284.7195286 -335.38632457 284.7195286 -335.84960938 282.61010742 C-336.74106141 280.25601163 -337.63066297 279.3233992 -339.546875 277.71484375 C-340.15378174 277.19752686 -340.76068848 276.68020996 -341.38598633 276.1472168 C-342.04236084 275.60363525 -342.69873535 275.06005371 -343.375 274.5 C-344.04877686 273.92999268 -344.72255371 273.35998535 -345.41674805 272.77270508 C-346.8070087 271.59791279 -348.20051096 270.42694633 -349.59716797 269.25976562 C-351.46111857 267.69966635 -353.31324908 266.12708268 -355.16015625 264.546875 C-359.9586432 260.44719683 -364.79051115 256.40510933 -369.75 252.5 C-374.3127001 248.88816955 -378.57092181 244.99750262 -382.8515625 241.05859375 C-386.35488323 237.9056051 -389.99446646 234.94923298 -393.66015625 231.98828125 C-398.26241616 228.22279587 -402.75975095 224.33685224 -407.265625 220.45703125 C-408.08643555 219.75247803 -408.08643555 219.75247803 -408.92382812 219.03369141 C-410.12231542 217.99722693 -411.31304655 216.95176004 -412.49804688 215.89990234 C-413.11228516 215.35930176 -413.72652344 214.81870117 -414.359375 214.26171875 C-414.91334961 213.76889404 -415.46732422 213.27606934 -416.03808594 212.76831055 C-417.72951547 211.34867736 -417.72951547 211.34867736 -420.625 210.5625 C-421.727008 209.18499 -422.82820044 207.80682137 -423.92578125 206.42578125 C-426.86137557 203.20675024 -430.33413278 200.63230954 -433.73046875 197.91796875 C-436.44487435 195.70907998 -439.04218764 193.42286919 -441.625 191.0625 C-445.8209484 187.24201323 -450.15901389 183.64980959 -454.5703125 180.08203125 C-458.16539003 177.11678188 -461.67742245 174.0649034 -465.1875 171 C-469.27172511 167.43628844 -473.36431293 163.91575288 -477.625 160.5625 C-483.83041243 155.67214186 -489.73628002 150.43717872 -495.69042969 145.24707031 C-498.78593222 142.55159234 -501.88913858 139.86523575 -505 137.1875 C-505.5760498 136.6910498 -506.15209961 136.19459961 -506.74560547 135.68310547 C-510.760376 132.24534958 -514.87974671 128.9872124 -519.1484375 125.8671875 C-519.63570312 125.43664062 -520.12296875 125.00609375 -520.625 124.5625 C-520.625 123.9025 -520.625 123.2425 -520.625 122.5625 C-521.17929687 122.31628906 -521.73359375 122.07007813 -522.3046875 121.81640625 C-530.05075644 117.6303993 -536.61714739 110.72627623 -543.08203125 104.81640625 C-545.75575506 102.44660803 -548.51655941 100.22378358 -551.3125 98 C-564.69210562 87.15986627 -564.69210562 87.15986627 -565.99609375 79.3359375 C-566.26490765 69.62701209 -562.35568185 63.27750781 -556.125 56.0625 C-547.79595677 47.31078891 -538.26167115 38.41200864 -525.8125 37.1875 C-516.81486582 37.57509375 -508.38276695 41.30693567 -500.375 45.125 C-498.28789925 46.10055749 -496.20064801 47.07579306 -494.11328125 48.05078125 C-492.94877441 48.59814941 -491.78426758 49.14551758 -490.58447266 49.70947266 C-486.03873206 51.84181075 -481.4785635 53.94263231 -476.91796875 56.04296875 C-476.06753998 56.43468765 -475.21711121 56.82640656 -474.34091187 57.22999573 C-472.60762908 58.02829126 -470.87432212 58.8265343 -469.14099121 59.62472534 C-465.81548283 61.15661134 -462.4906877 62.69003438 -459.16659546 64.22499084 C-457.58767327 64.95399021 -456.0084347 65.68230476 -454.42886353 66.40989685 C-450.67875042 68.13968282 -446.93734428 69.8846485 -443.21142578 71.66601562 C-442.52093643 71.99438416 -441.83044708 72.32275269 -441.11903381 72.66107178 C-439.25506391 73.5492604 -437.39414038 74.44383425 -435.53344727 75.33886719 C-432.69002154 76.75639705 -432.69002154 76.75639705 -429.625 76.5625 C-429.625 77.2225 -429.625 77.8825 -429.625 78.5625 C-428.81562988 78.80798584 -428.00625977 79.05347168 -427.17236328 79.30639648 C-422.91528191 80.81380761 -418.93036219 82.69859588 -414.8671875 84.66015625 C-414.04171417 85.05448349 -413.21624084 85.44881073 -412.36575317 85.85508728 C-408.85213758 87.53361251 -405.34244829 89.22027631 -401.83251953 90.90649414 C-399.2621634 92.13987542 -396.68974821 93.36888156 -394.1171875 94.59765625 C-393.32545135 94.97994888 -392.53371521 95.36224152 -391.71798706 95.75611877 C-390.97686676 96.1099614 -390.23574646 96.46380402 -389.47216797 96.82836914 C-388.82408173 97.13988419 -388.17599548 97.45139923 -387.50827026 97.77235413 C-385.56663955 98.58698574 -383.66629457 99.05986154 -381.625 99.5625 C-379.41082562 100.60930754 -377.23741194 101.68950442 -375.0625 102.8125 C-355.03709941 112.97376368 -334.67451613 122.44375018 -314.29296875 131.86376953 C-307.7918157 134.87186707 -301.30286299 137.90621375 -294.8125 140.9375 C-293.60376547 141.50188396 -292.39502539 142.06625604 -291.1862793 142.63061523 C-290.02523682 143.17274658 -288.86419434 143.71487793 -287.66796875 144.2734375 C-286.52763184 144.80420898 -285.38729492 145.33498047 -284.21240234 145.88183594 C-281.63902056 147.08744096 -279.07259722 148.30366168 -276.51025391 149.53222656 C-275.82828445 149.8567984 -275.146315 150.18137024 -274.44367981 150.51577759 C-273.12689232 151.14274149 -271.8122307 151.77419565 -270.50004578 152.41073608 C-267.67102392 153.75233803 -265.79949081 154.5625 -262.625 154.5625 C-262.625 155.2225 -262.625 155.8825 -262.625 156.5625 C-261.747229 156.83811768 -260.86945801 157.11373535 -259.96508789 157.39770508 C-256.87887145 158.47396695 -254.09452944 159.72252126 -251.18359375 161.19921875 C-250.18779297 161.69357422 -249.19199219 162.18792969 -248.16601562 162.69726562 C-246.08917704 163.73633842 -244.0162609 164.78328676 -241.94726562 165.83789062 C-240.95275391 166.32837891 -239.95824219 166.81886719 -238.93359375 167.32421875 C-238.03439209 167.77756592 -237.13519043 168.23091309 -236.20874023 168.69799805 C-233.1981866 169.70530887 -231.62166658 169.51748872 -228.625 168.5625 C-226.15310149 166.62029403 -225.64587164 165.62511493 -224.625 162.5625 C-223.985625 162.418125 -223.34625 162.27375 -222.6875 162.125 C-222.006875 161.939375 -221.32625 161.75375 -220.625 161.5625 C-220.32851563 160.96824219 -220.03203125 160.37398437 -219.7265625 159.76171875 C-218.45985818 157.23280198 -216.98309233 155.7576212 -214.9375 153.8125 C-212.22420676 151.17240711 -209.64645694 148.50335848 -207.1875 145.625 C-203.98420142 141.89633127 -200.55839494 138.45310703 -197.03125 135.03125 C-195.05784946 133.0065923 -193.20869564 130.95098333 -191.36328125 128.8125 C-187.51934311 124.38458094 -183.45565098 120.20949079 -179.3125 116.0625 C-178.59771484 115.33546875 -177.88292969 114.6084375 -177.14648438 113.859375 C-176.12071289 112.83070313 -176.12071289 112.83070313 -175.07421875 111.78125 C-174.15129028 110.8521582 -174.15129028 110.8521582 -173.2097168 109.90429688 C-171.625 108.5625 -171.625 108.5625 -169.625 108.5625 C-169.625 107.9025 -169.625 107.2425 -169.625 106.5625 C-168.12109375 105.08203125 -168.12109375 105.08203125 -166.0625 103.375 C-162.51503826 100.37572507 -159.25977128 97.22254868 -156.0703125 93.84765625 C-154.625 92.5625 -154.625 92.5625 -152.625 92.5625 C-152.625 91.9025 -152.625 91.2425 -152.625 90.5625 C-151.12890625 89.125 -151.12890625 89.125 -149.1875 87.5625 C-146.47311762 85.41724956 -146.47311762 85.41724956 -144.625 82.5625 C-143.88507813 82.12164062 -143.14515625 81.68078125 -142.3828125 81.2265625 C-139.37152047 79.4095506 -137.0606279 77.34525459 -134.5 74.9375 C-129.96226763 70.7455574 -125.30670225 66.78438477 -120.5 62.90625 C-117.93124533 60.81215652 -115.40427658 58.68036659 -112.88696289 56.52539062 C-106.53974999 51.09547069 -100.04509632 45.91528354 -93.37451172 40.88671875 C-91.52449807 39.48642932 -89.68590579 38.07194027 -87.84765625 36.65625 C-78.42133046 29.43735493 -68.72099459 22.808893 -58.625 16.5625 C-57.9222998 16.12663574 -57.21959961 15.69077148 -56.49560547 15.24169922 C-48.72959164 10.46000512 -40.84827442 6.01269981 -32.625 2.0625 C-31.95533203 1.73612549 -31.28566406 1.40975098 -30.59570312 1.07348633 C-20.88756523 -3.44503127 -9.64934819 -5.93418103 0 0 Z " fill="#802524" transform="translate(784.625,213.4375)"/>
<path d="M0 0 C4.9240432 4.7652031 9.44259642 9.88657333 14 15 C13.01 15.33 12.02 15.66 11 16 C9.15750794 13.90326797 7.32606023 11.79846151 5.5 9.6875 C4.97535156 9.09259766 4.45070313 8.49769531 3.91015625 7.88476562 C0 3.33984375 0 3.33984375 0 0 Z " fill="#7E1D1B" transform="translate(694,761)"/>
<path d="M0 0 C-0.66 0.66 -1.32 1.32 -2 2 C-0.68 2.66 0.64 3.32 2 4 C1.33613281 3.95359375 0.67226562 3.9071875 -0.01171875 3.859375 C-5.88116257 3.57488443 -5.88116257 3.57488443 -11.125 6 C-11.74375 6.66 -12.3625 7.32 -13 8 C-13.66 7.67 -14.32 7.34 -15 7 C-13.68 6.01 -12.36 5.02 -11 4 C-11.33 3.34 -11.66 2.68 -12 2 C-7.82262526 0.40861915 -4.46839215 -0.21278058 0 0 Z " fill="#8A3635" transform="translate(226,610)"/>
<path d="M0 0 C3.34608023 3.02532308 5.30159994 6.03571006 7.3125 10.0625 C7.84488281 11.10535156 8.37726562 12.14820313 8.92578125 13.22265625 C10 16 10 16 9 19 C6.26183343 16.26183343 4.97155085 12.97217359 3.375 9.5 C3.05015625 8.81035156 2.7253125 8.12070312 2.390625 7.41015625 C0 2.25725446 0 2.25725446 0 0 Z " fill="#7E2221" transform="translate(681,561)"/>
<path d="M0 0 C1.42892578 0.11794922 1.42892578 0.11794922 2.88671875 0.23828125 C5.3125 0.6875 5.3125 0.6875 7.3125 2.6875 C6.3225 3.0175 5.3325 3.3475 4.3125 3.6875 C4.3125 3.0275 4.3125 2.3675 4.3125 1.6875 C3.6525 2.3475 2.9925 3.0075 2.3125 3.6875 C-0.21875 3.98828125 -0.21875 3.98828125 -3.1875 4 C-4.1671875 4.01675781 -5.146875 4.03351563 -6.15625 4.05078125 C-7.40921875 3.87095703 -7.40921875 3.87095703 -8.6875 3.6875 C-9.3475 2.6975 -10.0075 1.7075 -10.6875 0.6875 C-6.96764333 -0.21366746 -3.80715974 -0.34799414 0 0 Z " fill="#8A3431" transform="translate(774.6875,210.3125)"/>
<path d="M0 0 C0.99 0.33 1.98 0.66 3 1 C2.34 2.65 1.68 4.3 1 6 C0.01 6 -0.98 6 -2 6 C-2.33 5.01 -2.66 4.02 -3 3 C-2.01 2.01 -1.02 1.02 0 0 Z M-4 7 C-3.01 7.33 -2.02 7.66 -1 8 C-2.65 9.65 -4.3 11.3 -6 13 C-6.66 12.67 -7.32 12.34 -8 12 C-6.68 10.35 -5.36 8.7 -4 7 Z " fill="#832D2B" transform="translate(567,370)"/>
<path d="M0 0 C1.32 0.33 2.64 0.66 4 1 C-1.445 5.455 -1.445 5.455 -7 10 C-7.66 9.67 -8.32 9.34 -9 9 C-6.33246846 5.44329128 -3.74798655 2.43619126 0 0 Z " fill="#7D1D1B" transform="translate(694,252)"/>
<path d="M0 0 C5.45479185 0.56820748 9.91059256 1.94637945 15 4 C10.86012983 5.37995672 7.21833309 5.05261943 3 4 C0.9375 1.9375 0.9375 1.9375 0 0 Z " fill="#89312F" transform="translate(227,611)"/>
<path d="M0 0 C0.66 0.33 1.32 0.66 2 1 C-0.97 4.63 -3.94 8.26 -7 12 C-7.33 11.01 -7.66 10.02 -8 9 C-5.36 6.03 -2.72 3.06 0 0 Z " fill="#7F1C1B" transform="translate(435,515)"/>
<path d="M0 0 C0.33 0.66 0.66 1.32 1 2 C-0.76227632 5.61730402 -2.64326421 7.80075931 -6 10 C-6.66 9.34 -7.32 8.68 -8 8 C-5.36 5.36 -2.72 2.72 0 0 Z " fill="#862B29" transform="translate(587,349)"/>
<path d="M0 0 C0.66 0.33 1.32 0.66 2 1 C0.59419724 2.65512248 -0.82506266 4.29882206 -2.25 5.9375 C-3.03890625 6.85402344 -3.8278125 7.77054687 -4.640625 8.71484375 C-6.91251033 10.91526249 -7.92319022 11.66832555 -11 12 C-7.49102731 7.81576108 -3.91939465 3.80411834 0 0 Z " fill="#8C3634" transform="translate(613,322)"/>
<path d="M0 0 C2.97 0.99 5.94 1.98 9 3 C8.01 4.485 8.01 4.485 7 6 C4.03 5.01 1.06 4.02 -2 3 C-1 1 -1 1 0 0 Z " fill="#862D2B" transform="translate(320,276)"/>
<path d="M0 0 C1.32 0 2.64 0 4 0 C2.55746343 3.36591866 0.66735273 5.51047079 -2 8 C-2.66 7.67 -3.32 7.34 -4 7 C-2.92598892 4.08482708 -2.22189824 2.22189824 0 0 Z " fill="#852B2A" transform="translate(724,365)"/>
<path d="M0 0 C0.66 0.33 1.32 0.66 2 1 C-1 4 -4 7 -7 10 C-7.66 9.67 -8.32 9.34 -9 9 C-7.87895467 7.68412059 -6.75303035 6.37239647 -5.625 5.0625 C-4.99851562 4.33160156 -4.37203125 3.60070312 -3.7265625 2.84765625 C-2 1 -2 1 0 0 Z " fill="#7F1C1B" transform="translate(664,277)"/>
<path d="M0 0 C3.36370321 1.39187719 5.21906331 2.79431396 7 6 C7.1875 9.25 7.1875 9.25 7 12 C5.19363327 10.19363327 4.17776438 8.75536287 2.9375 6.5625 C2.59589844 5.96566406 2.25429688 5.36882812 1.90234375 4.75390625 C1 3 1 3 0 0 Z " fill="#7D1C1B" transform="translate(793,224)"/>
<path d="M0 0 C3.94139078 1.66751148 6.7892812 4.22710649 10 7 C9.34 7.66 8.68 8.32 8 9 C6.84775972 8.07038578 5.70340824 7.1309875 4.5625 6.1875 C3.60537109 5.40439453 3.60537109 5.40439453 2.62890625 4.60546875 C1 3 1 3 0 0 Z " fill="#7F1D1B" transform="translate(425,472)"/>
<path d="M0 0 C1 3 1 3 0.07421875 5.04296875 C-0.61220703 6.10451172 -0.61220703 6.10451172 -1.3125 7.1875 C-1.76238281 7.90292969 -2.21226562 8.61835938 -2.67578125 9.35546875 C-3.11277344 9.89816406 -3.54976562 10.44085938 -4 11 C-4.66 11 -5.32 11 -6 11 C-4.54955729 6.89041233 -2.48889248 3.56741255 0 0 Z " fill="#7F1C1B" transform="translate(775,295)"/>
<path d="M0 0 C3.94139078 1.66751148 6.7892812 4.22710649 10 7 C9.01 7.33 8.02 7.66 7 8 C1.29824561 3.89473684 1.29824561 3.89473684 0 0 Z " fill="#7F1D1B" transform="translate(352,410)"/>
<path d="M0 0 C0.66 0 1.32 0 2 0 C4.15305957 3.85756507 5.39253254 6.55129785 5 11 C0 4.63636364 0 4.63636364 0 0 Z " fill="#7D1C1B" transform="translate(730,663)"/>
<path d="M0 0 C3.94139078 1.66751148 6.7892812 4.22710649 10 7 C9.01 7.33 8.02 7.66 7 8 C5.17578125 6.85546875 5.17578125 6.85546875 3.3125 5.1875 C2.37857422 4.37345703 2.37857422 4.37345703 1.42578125 3.54296875 C0 2 0 2 0 0 Z " fill="#801C1A" transform="translate(207,658)"/>
<path d="M0 0 C3.37462715 0.54723683 5.08235 1.0549 8 3 C7.67 3.33 7.34 3.66 7 4 C7.66 4.66 8.32 5.32 9 6 C6.1875 5.8125 6.1875 5.8125 3 5 C1.125 2.4375 1.125 2.4375 0 0 Z " fill="#883030" transform="translate(264,624)"/>
<path d="M0 0 C0.33 1.32 0.66 2.64 1 4 C1.66 4 2.32 4 3 4 C5.1519437 7.22791555 5.20086443 8.28400809 5 12 C2.65398514 9.86725921 1.13735551 7.97462211 0 5 C-0.125 2.25 -0.125 2.25 0 0 Z " fill="#7D1B19" transform="translate(635,465)"/>
<path d="M0 0 C4.2742558 1.5830577 6.26531794 4.50568404 9 8 C6.64277278 7.82539058 5.30294138 7.3003668 3.62109375 5.6328125 C0 1.32051282 0 1.32051282 0 0 Z " fill="#7F1C1A" transform="translate(264,708)"/>
<path d="M0 0 C0.33 0.99 0.66 1.98 1 3 C-1.31 4.98 -3.62 6.96 -6 9 C-5.34 7.68 -4.68 6.36 -4 5 C-4.33 4.34 -4.66 3.68 -5 3 C-4.34 2.34 -3.68 1.68 -3 1 C-2.34 1 -1.68 1 -1 1 C-0.67 0.67 -0.34 0.34 0 0 Z " fill="#842C2C" transform="translate(366,603)"/>
<path d="M0 0 C3.55780196 0.60990891 6.6828589 1.5783681 10 3 C9.01 3.66 8.02 4.32 7 5 C3.3125 3.625 3.3125 3.625 0 2 C0 1.34 0 0.68 0 0 Z " fill="#872B29" transform="translate(275,628)"/>
<path d="M0 0 C2.97 0.99 5.94 1.98 9 3 C5 5 5 5 3 5 C3 4.34 3 3.68 3 3 C2.01 2.67 1.02 2.34 0 2 C0 1.34 0 0.68 0 0 Z " fill="#862D2B" transform="translate(444,334)"/>
<path d="M0 0 C3.7952131 1.49097658 5.61042731 3.75700849 8 7 C4.21388773 6.45912682 2.44599233 4.88277668 0 2 C0 1.34 0 0.68 0 0 Z " fill="#801C1A" transform="translate(438,483)"/>
<path d="M0 0 C3.77545388 1.09068668 6.47043472 1.9083091 9 5 C8.67 5.99 8.34 6.98 8 8 C6.66372225 6.85760183 5.33104612 5.71098945 4 4.5625 C3.2575 3.92441406 2.515 3.28632813 1.75 2.62890625 C1.1725 2.09136719 0.595 1.55382812 0 1 C0 0.67 0 0.34 0 0 Z " fill="#882D2A" transform="translate(295,363)"/>
<path d="M0 0 C0 3 0 3 -2.5 5.6875 C-3.325 6.450625 -4.15 7.21375 -5 8 C-5.6875 6.1875 -5.6875 6.1875 -6 4 C-4.6875 2.25 -4.6875 2.25 -3 1 C-2.34 1 -1.68 1 -1 1 C-0.67 0.67 -0.34 0.34 0 0 Z " fill="#832F2D" transform="translate(267,737)"/>
<path d="M0 0 C2.64752004 2.57784846 4.94432065 4.91648098 7 8 C4.24542282 7.62005832 3.17979426 7.1926367 1.25 5.125 C0 3 0 3 0 0 Z " fill="#7D1A19" transform="translate(591,642)"/>
<path d="M0 0 C3.7952131 1.49097658 5.61042731 3.75700849 8 7 C4.78448712 6.65548076 3.97940123 5.97711248 1.75 3.5 C0 1 0 1 0 0 Z " fill="#7E1B19" transform="translate(330,391)"/>
<path d="M0 0 C2.97 0.99 5.94 1.98 9 3 C5 5 5 5 3 5 C3 4.34 3 3.68 3 3 C2.34 3 1.68 3 1 3 C0.67 2.01 0.34 1.02 0 0 Z " fill="#872B2A" transform="translate(502,361)"/>
<path d="M0 0 C0 3 0 3 -2.5 5.6875 C-3.325 6.450625 -4.15 7.21375 -5 8 C-4.45773019 4.20411134 -2.79872437 2.52788007 0 0 Z " fill="#7D1A17" transform="translate(269,732)"/>
<path d="M0 0 C0.99 0 1.98 0 3 0 C3.66 0.99 4.32 1.98 5 3 C4 5 4 5 2 6 C1.34 5.67 0.68 5.34 0 5 C0 3.35 0 1.7 0 0 Z " fill="#852F2E" transform="translate(760,731)"/>
<path d="M0 0 C2.64752004 2.57784846 4.94432065 4.91648098 7 8 C6.01 8 5.02 8 4 8 C0 3.77142857 0 3.77142857 0 0 Z " fill="#7E1917" transform="translate(577,626)"/>
<path d="M0 0 C0 0.99 0 1.98 0 3 C-2.3125 5.25 -2.3125 5.25 -5 7 C-5.99 6.67 -6.98 6.34 -8 6 C-6.625 4.5 -6.625 4.5 -5 3 C-4.34 3 -3.68 3 -3 3 C-1.37485532 1.54166642 -1.37485532 1.54166642 0 0 Z " fill="#852F2D" transform="translate(421,535)"/>
<path d="M0 0 C4.90567888 -0.28301994 7.24528933 -0.16492205 11 3 C9.35333797 2.8864371 7.70763918 2.75882619 6.0625 2.625 C5.14597656 2.55539062 4.22945312 2.48578125 3.28515625 2.4140625 C2.15400391 2.20910156 2.15400391 2.20910156 1 2 C0.67 1.34 0.34 0.68 0 0 Z " fill="#8B3835" transform="translate(724,794)"/>
<path d="M0 0 C2.31 0.33 4.62 0.66 7 1 C7.33 1.99 7.66 2.98 8 4 C5.64828869 3.40138258 3.3140622 2.73075648 1 2 C0.67 1.34 0.34 0.68 0 0 Z " fill="#7D1A18" transform="translate(294,636)"/>
<path d="M0 0 C2.04119788 1.61594832 4.04072937 3.2856382 6 5 C6 5.66 6 6.32 6 7 C3.53199953 5.84826645 1.95216435 4.95216435 0 3 C0 2.01 0 1.02 0 0 Z " fill="#7F1716" transform="translate(556,602)"/>
<path d="M0 0 C2.79872437 2.52788007 4.45773019 4.20411134 5 8 C4.01 8.495 4.01 8.495 3 9 C2.01 6.03 1.02 3.06 0 0 Z " fill="#7B1917" transform="translate(681,561)"/>
<path d="M0 0 C2.15377564 2.62198774 3.40072174 4.64404172 4 8 C3.01 7.67 2.02 7.34 1 7 C-0.1875 3.9375 -0.1875 3.9375 -1 1 C-0.67 0.67 -0.34 0.34 0 0 Z " fill="#862E2D" transform="translate(679,554)"/>
<path d="M0 0 C3.7952131 1.49097658 5.61042731 3.75700849 8 7 C6.25 6.875 6.25 6.875 4 6 C1.75 2.9375 1.75 2.9375 0 0 Z " fill="#7B1413" transform="translate(384,437)"/>
<path d="M0 0 C1.98 0.66 3.96 1.32 6 2 C5.67 2.66 5.34 3.32 5 4 C2.69 3.67 0.38 3.34 -2 3 C-1.34 2.01 -0.68 1.02 0 0 Z " fill="#872E2C" transform="translate(438,331)"/>
<path d="M0 0 C0.66 0.33 1.32 0.66 2 1 C1.67 1.99 1.34 2.98 1 4 C0.34 3.01 -0.32 2.02 -1 1 C-0.67 0.67 -0.34 0.34 0 0 Z " fill="#8C3636" transform="translate(694,578)"/>
<path d="M0 0 C0.99 0.495 0.99 0.495 2 1 C1.34 1.66 0.68 2.32 0 3 C0 2.01 0 1.02 0 0 Z " fill="#8C3734" transform="translate(576,352)"/>
<path d="M0 0 C0.33 0.66 0.66 1.32 1 2 C0.34 1.67 -0.32 1.34 -1 1 C-0.67 0.67 -0.34 0.34 0 0 Z " fill="#8C3534" transform="translate(353,804)"/>
<path d="M0 0 C0.33 0.66 0.66 1.32 1 2 C0.34 1.67 -0.32 1.34 -1 1 C-0.67 0.67 -0.34 0.34 0 0 Z " fill="#8A3332" transform="translate(305,748)"/>
<path d="M0 0 C0.66 0 1.32 0 2 0 C1.67 0.66 1.34 1.32 1 2 C0.67 1.34 0.34 0.68 0 0 Z " fill="#8C3533" transform="translate(608,667)"/>
<path d="M0 0 C0.33 0.66 0.66 1.32 1 2 C0.34 1.67 -0.32 1.34 -1 1 C-0.67 0.67 -0.34 0.34 0 0 Z " fill="#8A3636" transform="translate(703,595)"/>
<path d="M0 0 C0.66 0.66 1.32 1.32 2 2 C1.34 2 0.68 2 0 2 C0 1.34 0 0.68 0 0 Z " fill="#8E3634" transform="translate(392,562)"/>
<path d="M0 0 C0.33 0.66 0.66 1.32 1 2 C0.34 1.67 -0.32 1.34 -1 1 C-0.67 0.67 -0.34 0.34 0 0 Z " fill="#8C3735" transform="translate(679,546)"/>
<path d="M0 0 C0.66 0.66 1.32 1.32 2 2 C1.34 2 0.68 2 0 2 C0 1.34 0 0.68 0 0 Z " fill="#8D3433" transform="translate(369,428)"/>
<path d="" fill="#8C3432" transform="translate(0,0)"/>
<path d="M0 0 C0.66 0.66 1.32 1.32 2 2 C1.34 2 0.68 2 0 2 C0 1.34 0 0.68 0 0 Z " fill="#8D3433" transform="translate(276,349)"/>
<path d="M0 0 C0.66 0.66 1.32 1.32 2 2 C1.34 2 0.68 2 0 2 C0 1.34 0 0.68 0 0 Z " fill="#8D3837" transform="translate(633,296)"/>
<path d="M0 0 C0.99 0.495 0.99 0.495 2 1 C1.01 1.495 1.01 1.495 0 2 C0 1.34 0 0.68 0 0 Z " fill="#8F3937" transform="translate(636,296)"/>
<path d="M0 0 C2 1 2 1 2 1 Z " fill="#8C3C3B" transform="translate(381,831)"/>
<path d="M0 0 C2 1 2 1 2 1 Z " fill="#8D3C3A" transform="translate(721,795)"/>
<path d="" fill="#893635" transform="translate(0,0)"/>
<path d="" fill="#8E3939" transform="translate(0,0)"/>
<path d="" fill="#8E3937" transform="translate(0,0)"/>
<path d="" fill="#8C3434" transform="translate(0,0)"/>
<path d="M0 0 C2 1 2 1 2 1 Z " fill="#8E3635" transform="translate(297,634)"/>
<path d="" fill="#883835" transform="translate(0,0)"/>
<path d="M0 0 C2 1 2 1 2 1 Z " fill="#8B3D3C" transform="translate(221,608)"/>
<path d="" fill="#893434" transform="translate(0,0)"/>
<path d="M0 0 C2 1 2 1 2 1 Z " fill="#8E3633" transform="translate(376,581)"/>
<path d="M0 0 C2 1 2 1 2 1 Z " fill="#8E3432" transform="translate(376,576)"/>
<path d="" fill="#8B3533" transform="translate(0,0)"/>
<path d="" fill="#8D3635" transform="translate(0,0)"/>
<path d="" fill="#8E3735" transform="translate(0,0)"/>
<path d="" fill="#8C3532" transform="translate(0,0)"/>
<path d="" fill="#8E3433" transform="translate(0,0)"/>
<path d="M0 0 C2 1 2 1 2 1 Z " fill="#8E3531" transform="translate(342,407)"/>
<path d="" fill="#8B3130" transform="translate(0,0)"/>
<path d="" fill="#8D3532" transform="translate(0,0)"/>
<path d="" fill="#8D3534" transform="translate(0,0)"/>
<path d="M0 0 C2 1 2 1 2 1 Z " fill="#8D3634" transform="translate(264,339)"/>
<path d="M0 0 C2 1 2 1 2 1 Z " fill="#893333" transform="translate(436,328)"/>
<path d="" fill="#8A3533" transform="translate(0,0)"/>
<path d="" fill="#8E3936" transform="translate(0,0)"/>
<path d="M0 0 C2 1 2 1 2 1 Z " fill="#8E3735" transform="translate(387,305)"/>
<path d="" fill="#903938" transform="translate(0,0)"/>
<path d="M0 0 C2 1 2 1 2 1 Z " fill="#893534" transform="translate(316,272)"/>
<path d="" fill="#8E3A38" transform="translate(0,0)"/>
<path d="M0 0 C2 1 2 1 2 1 Z " fill="#8B3E3C" transform="translate(798,226)"/>
<path d="" fill="#77625E" transform="translate(0,0)"/>
<path d="" fill="#903C3B" transform="translate(0,0)"/>
<path d="" fill="#8A3634" transform="translate(0,0)"/>
<path d="" fill="#8D3F3D" transform="translate(0,0)"/>
<path d="" fill="#8D3C39" transform="translate(0,0)"/>
<path d="" fill="#8A3735" transform="translate(0,0)"/>
<path d="" fill="#8B393B" transform="translate(0,0)"/>
<path d="" fill="#893432" transform="translate(0,0)"/>
<path d="" fill="#815C56" transform="translate(0,0)"/>
<path d="" fill="#8D3433" transform="translate(0,0)"/>
<path d="" fill="#8B2E2E" transform="translate(0,0)"/>
<path d="" fill="#8C3534" transform="translate(0,0)"/>
<path d="" fill="#8C3434" transform="translate(0,0)"/>
<path d="" fill="#8E3937" transform="translate(0,0)"/>
<path d="" fill="#8C3F3C" transform="translate(0,0)"/>
<path d="" fill="#8D3E3D" transform="translate(0,0)"/>
<path d="" fill="#8B3636" transform="translate(0,0)"/>
<path d="" fill="#8B3533" transform="translate(0,0)"/>
<path d="" fill="#8B3836" transform="translate(0,0)"/>
<path d="" fill="#863938" transform="translate(0,0)"/>
<path d="" fill="#8E3735" transform="translate(0,0)"/>
<path d="" fill="#8C3836" transform="translate(0,0)"/>
<path d="" fill="#8D3F3D" transform="translate(0,0)"/>
<path d="" fill="#8E3936" transform="translate(0,0)"/>
<path d="" fill="#8E3230" transform="translate(0,0)"/>
<path d="" fill="#8B3532" transform="translate(0,0)"/>
<path d="" fill="#903D3D" transform="translate(0,0)"/>
<path d="" fill="#8F3C39" transform="translate(0,0)"/>
<path d="" fill="#8B3734" transform="translate(0,0)"/>
<path d="" fill="#8E403C" transform="translate(0,0)"/>
<path d="" fill="#8C3634" transform="translate(0,0)"/>
<path d="" fill="#8D3838" transform="translate(0,0)"/>
<path d="" fill="#8F3F3E" transform="translate(0,0)"/>
<path d="" fill="#8D3837" transform="translate(0,0)"/>
<path d="" fill="#8D3634" transform="translate(0,0)"/>
<path d="" fill="#8B3A39" transform="translate(0,0)"/>
<path d="" fill="#923839" transform="translate(0,0)"/>
<path d="" fill="#8B3A39" transform="translate(0,0)"/>
<path d="" fill="#8C3633" transform="translate(0,0)"/>
<path d="" fill="#8E3737" transform="translate(0,0)"/>
<path d="" fill="#8C3834" transform="translate(0,0)"/>
<path d="" fill="#893532" transform="translate(0,0)"/>
<path d="" fill="#8B302F" transform="translate(0,0)"/>
<path d="" fill="#8D383A" transform="translate(0,0)"/>
<path d="" fill="#90403E" transform="translate(0,0)"/>
<path d="" fill="#8D3633" transform="translate(0,0)"/>
<path d="" fill="#913A38" transform="translate(0,0)"/>
<path d="" fill="#87322E" transform="translate(0,0)"/>
<path d="" fill="#89312F" transform="translate(0,0)"/>
<path d="" fill="#8A312E" transform="translate(0,0)"/>
<path d="" fill="#8D3634" transform="translate(0,0)"/>
<path d="" fill="#8B3434" transform="translate(0,0)"/>
<path d="" fill="#8D3637" transform="translate(0,0)"/>
<path d="" fill="#8C3A3B" transform="translate(0,0)"/>
<path d="" fill="#8E3D3C" transform="translate(0,0)"/>
<path d="" fill="#8C3536" transform="translate(0,0)"/>
<path d="" fill="#842C31" transform="translate(0,0)"/>
<path d="" fill="#8B3634" transform="translate(0,0)"/>
<path d="" fill="#8E3634" transform="translate(0,0)"/>
<path d="" fill="#8B3635" transform="translate(0,0)"/>
<path d="" fill="#8B3633" transform="translate(0,0)"/>
<path d="" fill="#8E3636" transform="translate(0,0)"/>
<path d="" fill="#8D3837" transform="translate(0,0)"/>
<path d="" fill="#913835" transform="translate(0,0)"/>
<path d="" fill="#8F3634" transform="translate(0,0)"/>
<path d="" fill="#8E3635" transform="translate(0,0)"/>
<path d="" fill="#8E3837" transform="translate(0,0)"/>
<path d="" fill="#8C3734" transform="translate(0,0)"/>
<path d="" fill="#883535" transform="translate(0,0)"/>
<path d="" fill="#8C3435" transform="translate(0,0)"/>
<path d="" fill="#8C3636" transform="translate(0,0)"/>
<path d="" fill="#8F3836" transform="translate(0,0)"/>
<path d="" fill="#8D3937" transform="translate(0,0)"/>
<path d="" fill="#93383A" transform="translate(0,0)"/>
<path d="" fill="#8F3635" transform="translate(0,0)"/>
<path d="" fill="#903535" transform="translate(0,0)"/>
<path d="" fill="#8D3B39" transform="translate(0,0)"/>
<path d="" fill="#8E3B3A" transform="translate(0,0)"/>
<path d="" fill="#8B3231" transform="translate(0,0)"/>
<path d="" fill="#8F3434" transform="translate(0,0)"/>
<path d="" fill="#903635" transform="translate(0,0)"/>
<path d="" fill="#8F3534" transform="translate(0,0)"/>
<path d="" fill="#8B3433" transform="translate(0,0)"/>
<path d="" fill="#8C3836" transform="translate(0,0)"/>
<path d="" fill="#8B3735" transform="translate(0,0)"/>
<path d="" fill="#8A3532" transform="translate(0,0)"/>
<path d="" fill="#8B3635" transform="translate(0,0)"/>
<path d="" fill="#8B3733" transform="translate(0,0)"/>
<path d="" fill="#8D3232" transform="translate(0,0)"/>
<path d="" fill="#8D3B3B" transform="translate(0,0)"/>
<path d="" fill="#8D3A39" transform="translate(0,0)"/>
<path d="" fill="#8E3532" transform="translate(0,0)"/>
<path d="" fill="#8C3534" transform="translate(0,0)"/>
<path d="" fill="#8F3834" transform="translate(0,0)"/>
<path d="" fill="#8D3735" transform="translate(0,0)"/>
<path d="" fill="#893432" transform="translate(0,0)"/>
<path d="" fill="#8A322F" transform="translate(0,0)"/>
<path d="" fill="#8C3331" transform="translate(0,0)"/>
<path d="" fill="#8E3535" transform="translate(0,0)"/>
<path d="" fill="#8D3633" transform="translate(0,0)"/>
<path d="" fill="#8C3231" transform="translate(0,0)"/>
<path d="" fill="#8F3735" transform="translate(0,0)"/>
<path d="" fill="#8E3635" transform="translate(0,0)"/>
<path d="" fill="#8D3231" transform="translate(0,0)"/>
<path d="" fill="#903736" transform="translate(0,0)"/>
<path d="" fill="#8B3432" transform="translate(0,0)"/>
<path d="" fill="#8C3533" transform="translate(0,0)"/>
<path d="" fill="#8A3534" transform="translate(0,0)"/>
<path d="" fill="#8D3231" transform="translate(0,0)"/>
<path d="" fill="#8F4040" transform="translate(0,0)"/>
<path d="" fill="#8B3735" transform="translate(0,0)"/>
<path d="" fill="#8B3434" transform="translate(0,0)"/>
<path d="" fill="#8B3533" transform="translate(0,0)"/>
<path d="" fill="#8E3733" transform="translate(0,0)"/>
<path d="" fill="#8B3738" transform="translate(0,0)"/>
<path d="" fill="#8B3231" transform="translate(0,0)"/>
<path d="" fill="#8B3432" transform="translate(0,0)"/>
<path d="" fill="#8D2C2B" transform="translate(0,0)"/>
<path d="" fill="#8B2E2E" transform="translate(0,0)"/>
<path d="" fill="#8F3E3B" transform="translate(0,0)"/>
<path d="" fill="#8D3130" transform="translate(0,0)"/>
<path d="" fill="#8D3634" transform="translate(0,0)"/>
<path d="" fill="#8F423F" transform="translate(0,0)"/>
<path d="" fill="#8C3732" transform="translate(0,0)"/>
<path d="" fill="#8B3634" transform="translate(0,0)"/>
<path d="" fill="#873534" transform="translate(0,0)"/>
<path d="" fill="#8B3532" transform="translate(0,0)"/>
<path d="" fill="#882F2D" transform="translate(0,0)"/>
<path d="" fill="#8F3635" transform="translate(0,0)"/>
<path d="" fill="#903533" transform="translate(0,0)"/>
<path d="" fill="#913935" transform="translate(0,0)"/>
<path d="" fill="#8C3534" transform="translate(0,0)"/>
<path d="" fill="#873433" transform="translate(0,0)"/>
<path d="" fill="#8E3132" transform="translate(0,0)"/>
<path d="" fill="#8F3534" transform="translate(0,0)"/>
<path d="" fill="#8E3532" transform="translate(0,0)"/>
<path d="" fill="#903533" transform="translate(0,0)"/>
<path d="" fill="#8D3733" transform="translate(0,0)"/>
<path d="" fill="#8D3836" transform="translate(0,0)"/>
<path d="" fill="#8D3433" transform="translate(0,0)"/>
<path d="" fill="#8A3131" transform="translate(0,0)"/>
<path d="" fill="#8D3631" transform="translate(0,0)"/>
<path d="" fill="#8E3434" transform="translate(0,0)"/>
<path d="" fill="#883534" transform="translate(0,0)"/>
<path d="" fill="#903634" transform="translate(0,0)"/>
<path d="" fill="#8B3936" transform="translate(0,0)"/>
<path d="" fill="#8C3536" transform="translate(0,0)"/>
<path d="" fill="#8D3432" transform="translate(0,0)"/>
<path d="" fill="#8D3633" transform="translate(0,0)"/>
<path d="" fill="#8E3835" transform="translate(0,0)"/>
<path d="" fill="#8A3535" transform="translate(0,0)"/>
<path d="" fill="#8E3231" transform="translate(0,0)"/>
<path d="" fill="#8E3735" transform="translate(0,0)"/>
<path d="" fill="#8D322E" transform="translate(0,0)"/>
<path d="" fill="#8F3635" transform="translate(0,0)"/>
<path d="" fill="#8E3836" transform="translate(0,0)"/>
<path d="" fill="#8B3636" transform="translate(0,0)"/>
<path d="" fill="#8F3535" transform="translate(0,0)"/>
<path d="" fill="#8D3537" transform="translate(0,0)"/>
<path d="" fill="#8B3637" transform="translate(0,0)"/>
<path d="" fill="#8C3737" transform="translate(0,0)"/>
<path d="" fill="#8E3330" transform="translate(0,0)"/>
<path d="" fill="#8D3534" transform="translate(0,0)"/>
<path d="" fill="#8E3634" transform="translate(0,0)"/>
<path d="" fill="#903532" transform="translate(0,0)"/>
<path d="" fill="#8F3231" transform="translate(0,0)"/>
<path d="" fill="#903634" transform="translate(0,0)"/>
<path d="" fill="#8F3634" transform="translate(0,0)"/>
<path d="" fill="#8E3634" transform="translate(0,0)"/>
<path d="" fill="#8D3231" transform="translate(0,0)"/>
<path d="" fill="#8F3636" transform="translate(0,0)"/>
<path d="" fill="#903736" transform="translate(0,0)"/>
<path d="" fill="#8D3331" transform="translate(0,0)"/>
<path d="" fill="#8A3434" transform="translate(0,0)"/>
<path d="" fill="#8D3330" transform="translate(0,0)"/>
<path d="" fill="#8C3536" transform="translate(0,0)"/>
<path d="" fill="#8B3433" transform="translate(0,0)"/>
<path d="" fill="#8F3534" transform="translate(0,0)"/>
<path d="" fill="#8C3532" transform="translate(0,0)"/>
<path d="" fill="#8B3532" transform="translate(0,0)"/>
<path d="" fill="#8D302E" transform="translate(0,0)"/>
<path d="" fill="#8D3534" transform="translate(0,0)"/>
<path d="" fill="#903635" transform="translate(0,0)"/>
<path d="" fill="#8E3634" transform="translate(0,0)"/>
<path d="" fill="#8D3638" transform="translate(0,0)"/>
<path d="" fill="#8B3533" transform="translate(0,0)"/>
<path d="" fill="#8D3736" transform="translate(0,0)"/>
<path d="" fill="#8A322F" transform="translate(0,0)"/>
<path d="" fill="#892F2C" transform="translate(0,0)"/>
<path d="" fill="#8C2E2E" transform="translate(0,0)"/>
<path d="" fill="#89302F" transform="translate(0,0)"/>
<path d="" fill="#8C3533" transform="translate(0,0)"/>
<path d="" fill="#903633" transform="translate(0,0)"/>
<path d="" fill="#8F3535" transform="translate(0,0)"/>
<path d="" fill="#8E3433" transform="translate(0,0)"/>
<path d="" fill="#8D3637" transform="translate(0,0)"/>
<path d="" fill="#903834" transform="translate(0,0)"/>
<path d="" fill="#8D3635" transform="translate(0,0)"/>
<path d="" fill="#8A3434" transform="translate(0,0)"/>
<path d="" fill="#8B3836" transform="translate(0,0)"/>
<path d="" fill="#8A3534" transform="translate(0,0)"/>
<path d="" fill="#8C3532" transform="translate(0,0)"/>
<path d="" fill="#8F3735" transform="translate(0,0)"/>
<path d="" fill="#903936" transform="translate(0,0)"/>
<path d="" fill="#8D3433" transform="translate(0,0)"/>
<path d="" fill="#8F3633" transform="translate(0,0)"/>
<path d="" fill="#8C3533" transform="translate(0,0)"/>
<path d="" fill="#8D3537" transform="translate(0,0)"/>
<path d="" fill="#8A3632" transform="translate(0,0)"/>
<path d="" fill="#8C3634" transform="translate(0,0)"/>
<path d="" fill="#8E3533" transform="translate(0,0)"/>
<path d="" fill="#913736" transform="translate(0,0)"/>
<path d="" fill="#8D3232" transform="translate(0,0)"/>
<path d="" fill="#8F3836" transform="translate(0,0)"/>
<path d="" fill="#8E3434" transform="translate(0,0)"/>
<path d="" fill="#8D3331" transform="translate(0,0)"/>
<path d="" fill="#8C3534" transform="translate(0,0)"/>
<path d="" fill="#8D322F" transform="translate(0,0)"/>
<path d="" fill="#8D3432" transform="translate(0,0)"/>
<path d="" fill="#8C3736" transform="translate(0,0)"/>
<path d="" fill="#8E3533" transform="translate(0,0)"/>
<path d="" fill="#8B3230" transform="translate(0,0)"/>
<path d="" fill="#8C3434" transform="translate(0,0)"/>
<path d="" fill="#8D3534" transform="translate(0,0)"/>
<path d="" fill="#8C3534" transform="translate(0,0)"/>
<path d="" fill="#8D3736" transform="translate(0,0)"/>
<path d="" fill="#893737" transform="translate(0,0)"/>
<path d="" fill="#8C322E" transform="translate(0,0)"/>
<path d="" fill="#8E3836" transform="translate(0,0)"/>
<path d="" fill="#8D3532" transform="translate(0,0)"/>
<path d="" fill="#8C3736" transform="translate(0,0)"/>
<path d="" fill="#893839" transform="translate(0,0)"/>
<path d="" fill="#8D3531" transform="translate(0,0)"/>
<path d="" fill="#8A3637" transform="translate(0,0)"/>
<path d="" fill="#8E3837" transform="translate(0,0)"/>
<path d="" fill="#8C3735" transform="translate(0,0)"/>
<path d="" fill="#8E3938" transform="translate(0,0)"/>
<path d="" fill="#8C3836" transform="translate(0,0)"/>
<path d="" fill="#8E3635" transform="translate(0,0)"/>
<path d="" fill="#8C3937" transform="translate(0,0)"/>
<path d="" fill="#8B302E" transform="translate(0,0)"/>
<path d="" fill="#8D3131" transform="translate(0,0)"/>
<path d="" fill="#8F3934" transform="translate(0,0)"/>
<path d="" fill="#8C3936" transform="translate(0,0)"/>
<path d="" fill="#8F3837" transform="translate(0,0)"/>
<path d="" fill="#903F3D" transform="translate(0,0)"/>
<path d="" fill="#8C3634" transform="translate(0,0)"/>
<path d="" fill="#913B39" transform="translate(0,0)"/>
<path d="" fill="#8A3B39" transform="translate(0,0)"/>
<path d="" fill="#8C3536" transform="translate(0,0)"/>
<path d="" fill="#903F3D" transform="translate(0,0)"/>
<path d="" fill="#8E3A38" transform="translate(0,0)"/>
<path d="" fill="#903937" transform="translate(0,0)"/>
<path d="" fill="#893737" transform="translate(0,0)"/>
<path d="" fill="#8F413E" transform="translate(0,0)"/>
<path d="" fill="#903736" transform="translate(0,0)"/>
<path d="" fill="#8D3734" transform="translate(0,0)"/>
<path d="" fill="#873332" transform="translate(0,0)"/>
<path d="" fill="#8E3634" transform="translate(0,0)"/>
<path d="" fill="#8E3837" transform="translate(0,0)"/>
<path d="" fill="#8D3939" transform="translate(0,0)"/>
<path d="" fill="#8B3532" transform="translate(0,0)"/>
<path d="" fill="#8A3735" transform="translate(0,0)"/>
<path d="" fill="#8B3938" transform="translate(0,0)"/>
<path d="" fill="#8B3A3A" transform="translate(0,0)"/>
<path d="" fill="#8E3938" transform="translate(0,0)"/>
<path d="" fill="#8E3A38" transform="translate(0,0)"/>
<path d="" fill="#903B3A" transform="translate(0,0)"/>
<path d="" fill="#913B37" transform="translate(0,0)"/>
<path d="" fill="#913F3E" transform="translate(0,0)"/>
<path d="" fill="#8E3937" transform="translate(0,0)"/>
<path d="" fill="#8B3837" transform="translate(0,0)"/>
<path d="" fill="#903B38" transform="translate(0,0)"/>
<path d="" fill="#8E3B37" transform="translate(0,0)"/>
<path d="" fill="#8F403E" transform="translate(0,0)"/>
<path d="" fill="#8A3938" transform="translate(0,0)"/>
<path d="" fill="#8E3D39" transform="translate(0,0)"/>
<path d="" fill="#8E3837" transform="translate(0,0)"/>
<path d="" fill="#8E4040" transform="translate(0,0)"/>
<path d="" fill="#8C3E3D" transform="translate(0,0)"/>
<path d="" fill="#8B3B3B" transform="translate(0,0)"/>
<path d="" fill="#8D3C3B" transform="translate(0,0)"/>
<path d="" fill="#8C403D" transform="translate(0,0)"/>
<path d="" fill="#7E6662" transform="translate(0,0)"/>
</svg>
